# xmcd
#
# Track frame offsets: 
#        150
#        21542
#        42412
#        62240
#        80737
#        103504
#        125500
#        144483
#        167987
#        189289
#        208394
#        228141
#        249832
#        274623
#
# Disc length: 4004 seconds
#
# Revision: 1
# Processed by: cddbd v1.5.2PL0 Copyright (c) Steve Scherf et al.
# Submitted via: ExactAudioCopyFreeDBPlugin 1.0
#
DISCID=c90fa20e
DTITLE=Celine Dion - Super Best
DYEAR=1900
DGENRE=Blues
TTITLE0=My Heart Will Go On
TTITLE1=Because You Loved Me
TTITLE2=When I Fall In Love
TTITLE3=Beauty And The Best
TTITLE4=The Reason
TTITLE5=Tell Him
TTITLE6=When I Need You
TTITLE7=Let's Talk About Love
TTITLE8=Think Twice
TTITLE9=Pur Que Tu M'aimes Encore
TTITLE10=Falling Into You
TTITLE11=Only One Road
TTITLE12=I Love You
TTITLE13=The Power Of Love
EXTD=
EXTT0=
EXTT1=
EXTT2=
EXTT3=
EXTT4=
EXTT5=
EXTT6=
EXTT7=
EXTT8=
EXTT9=
EXTT10=
EXTT11=
EXTT12=
EXTT13=
PLAYORDER=
